<?xml version="1.0" standalone="no"?>
<!DOCTYPE svg PUBLIC "-//W3C//DTD SVG 20010904//EN"
 "http://www.w3.org/TR/2001/REC-SVG-20010904/DTD/svg10.dtd">
<svg version="1.0" xmlns="http://www.w3.org/2000/svg"
 width="600.000000pt" height="600.000000pt" viewBox="0 0 600.000000 600.000000"
 preserveAspectRatio="xMidYMid meet">
<metadata>
Created by potrace 1.11, written by Peter Selinger 2001-2013
</metadata>
<g transform="translate(0.000000,600.000000) scale(0.100000,-0.100000)"
fill="#000000" stroke="none">
<path d="M4344 5625 c3 -16 8 -50 11 -75 7 -53 11 -81 20 -135 9 -62 16 -108
19 -135 5 -38 18 -122 22 -145 3 -11 7 -40 9 -65 3 -25 8 -56 10 -70 18 -97
18 -102 -7 -95 -13 3 -32 10 -43 15 -11 5 -65 23 -120 40 -55 17 -109 35 -120
40 -29 12 -333 112 -340 111 -3 -1 -19 6 -35 14 -17 9 -30 13 -30 10 0 -3 -13
1 -30 10 -16 8 -31 15 -32 15 -2 -1 -10 1 -18 4 -78 25 -140 42 -140 40 0 -2
19 -16 43 -31 23 -15 44 -30 47 -33 3 -3 40 -30 83 -60 44 -30 90 -65 104 -77
14 -12 34 -25 44 -28 11 -4 19 -10 19 -14 0 -4 18 -17 40 -30 22 -12 40 -26
40 -32 0 -5 5 -9 11 -9 5 0 30 -15 54 -33 l44 -34 -72 -13 c-40 -8 -76 -15
-82 -16 -5 -2 -19 -5 -30 -8 -57 -13 -215 -68 -220 -76 -3 -6 -15 -10 -26 -10
-10 0 -19 -4 -19 -10 0 -6 -29 -10 -67 -10 -65 0 -79 -6 -33 -15 31 -6 36 -13
14 -21 -39 -14 -177 -118 -257 -193 l-82 -77 -40 14 c-22 7 -51 16 -65 18 -14
3 -45 10 -69 15 -81 18 -219 9 -294 -18 -83 -31 -124 -71 -183 -178 -26 -48
-49 -78 -56 -76 -36 12 -395 0 -417 -13 -3 -2 -26 -7 -51 -10 -61 -8 -248 -62
-266 -77 -8 -6 -14 -9 -14 -6 0 11 -186 -77 -255 -120 -11 -7 -27 -15 -35 -19
-16 -8 -154 -108 -180 -130 -8 -7 -57 -55 -108 -105 -149 -147 -265 -317 -350
-509 -50 -112 -117 -334 -106 -352 3 -4 2 -8 -3 -8 -4 0 -8 -10 -9 -22 0 -13
-5 -50 -9 -83 -16 -110 -11 -330 10 -475 19 -131 89 -341 156 -472 41 -80 136
-230 175 -278 122 -148 236 -254 368 -342 10 -7 24 -17 30 -23 61 -54 351
-182 486 -215 25 -6 54 -13 65 -15 11 -3 31 -7 45 -10 14 -3 36 -7 49 -10 121
-24 396 -24 537 1 67 12 210 47 241 60 18 8 34 14 35 13 12 -3 115 42 218 94
77 40 228 134 250 157 3 3 32 28 65 55 98 82 197 190 264 287 20 29 39 55 42
58 16 13 98 168 147 280 123 278 159 648 92 966 -19 93 -59 234 -80 279 -32
72 -104 217 -125 254 l-26 43 25 37 c14 20 37 50 52 66 71 82 84 181 40 307
-26 76 -117 218 -139 218 -17 0 34 48 82 79 55 35 56 35 256 57 33 3 68 8 77
9 9 2 48 7 85 10 37 4 71 9 76 12 4 2 7 2 7 0 0 -3 -58 -84 -99 -137 -11 -14
-51 -68 -90 -120 -71 -96 -74 -101 -101 -134 -14 -18 -14 -19 5 -8 11 6 34 23
50 37 67 59 76 65 85 65 6 0 10 3 10 8 0 4 23 23 50 42 27 19 50 38 50 43 0 4
5 7 10 7 6 0 18 7 28 16 32 29 76 63 78 61 2 -1 5 -25 8 -52 3 -28 8 -61 10
-75 3 -14 7 -50 11 -80 3 -30 7 -71 10 -90 3 -19 8 -57 11 -85 4 -27 7 -57 9
-65 8 -61 19 -148 19 -162 1 -19 12 -34 13 -15 0 6 17 76 37 155 19 78 38 152
41 165 2 12 12 49 20 82 9 33 18 69 20 80 24 109 40 165 45 165 4 0 40 -48 80
-107 41 -60 77 -110 80 -113 3 -3 26 -35 50 -72 24 -38 48 -68 52 -68 4 0 8
-4 8 -10 0 -14 53 -89 63 -90 5 0 6 3 3 8 -4 8 -12 53 -21 132 -7 65 -16 131
-21 160 -3 14 -7 48 -9 77 -3 29 -7 66 -10 83 -3 16 -3 30 0 30 6 0 121 -37
145 -47 8 -3 20 -7 25 -9 6 -1 74 -24 153 -51 78 -27 142 -46 142 -43 0 6
-191 190 -304 294 -22 20 -36 37 -30 37 5 1 34 3 64 5 30 1 55 3 55 4 0 1 29
4 180 15 44 3 109 8 145 12 80 7 122 10 179 12 24 0 42 3 40 5 -4 4 -190 45
-279 62 -14 2 -36 7 -50 10 -14 3 -32 7 -40 9 -8 2 -85 18 -170 35 -85 18
-161 33 -167 33 -27 1 -11 26 25 41 20 9 55 28 77 42 22 14 52 30 68 37 15 6
27 15 27 19 0 4 4 8 9 8 5 0 42 19 83 42 94 55 127 74 158 90 14 7 27 15 30
18 3 3 31 19 62 35 32 17 68 38 80 47 22 16 20 17 -32 3 -30 -7 -68 -16 -85
-19 -16 -3 -68 -14 -115 -25 -47 -11 -100 -23 -119 -26 -19 -3 -37 -7 -40 -9
-3 -2 -22 -7 -41 -10 -19 -3 -61 -12 -92 -20 -32 -7 -58 -12 -58 -9 0 2 7 20
17 41 9 20 17 40 18 45 2 4 4 10 5 15 1 4 2 10 1 15 0 4 4 7 9 7 6 0 10 7 10
15 0 13 14 47 66 162 15 33 19 55 6 38 -11 -17 -282 -196 -282 -187 0 4 5 46
11 92 13 110 23 198 34 315 3 33 8 71 10 85 10 59 14 120 7 120 -4 0 -20 -24
-35 -52 -15 -29 -40 -75 -55 -103 -15 -27 -67 -124 -116 -214 l-90 -164 -24
54 c-14 30 -29 62 -33 71 -5 10 -9 25 -9 33 0 8 -4 15 -10 15 -5 0 -10 7 -10
15 0 8 -9 37 -21 63 -12 26 -25 56 -30 67 -5 11 -36 87 -69 169 -62 155 -77
183 -66 131z"/>
</g>
</svg>
