<svg xmlns="http://www.w3.org/2000/svg" xmlns:xlink="http://www.w3.org/1999/xlink" width="680px" height="242px" viewBox="-0.16338028013706207 0 680.3267822265625 230" preserveAspectRatio="xMidYMid meet" ><rect id="svgEditorBackground" x="0" y="0" width="680" height="242" style="fill: none; stroke: none;"/><defs id="svgEditorDefs"><path id="svgEditorClosePathDefs" style="stroke:black;stroke-width:1px;fill:khaki;"/></defs><path d="M43.46478873239436,41.58309859154932q77.71267605633804,-36.81126760563385,112.47887323943658,32.03943661971828q23.85915492957747,79.75774647887326,-49.08169014084504,92.70985915492955q17.72394366197186,-0.6816901408450349,21.814084507042224,-1.363380281690155q10.907042253521126,-1.3633802816900982,16.360563638176757,9.543662100778505q8.861971573090898,25.22253508232012,-38.17464814521898,40.9014082787742q-62.033802816901414,10.907042296503676,-67.48732394366198,-33.40281685842589q-32.03943726445587,-115.20563418965943,2.0450711962202774,-138.38309970909444Z" style="fill:white;stroke:black;stroke-width:6.09px;stroke-linecap:round;stroke-linejoin:round;" id="e1_path"/><path d="M92.54647887323941,132.92957746478874q-17.042253521126753,9.543661971831,-29.312676056338006,29.99436619718307" style="fill:none;stroke:black;stroke-width:5.41px;stroke-linecap:round;" id="e3_path"/><path d="M60.50704225352112,132.92957746478874" style="fill:none;stroke:black;" stroke-width="0.6816901408450703" id="e4_path"/><path d="M63.2338028169014,132.24788732394364" style="fill:none;stroke:black;" stroke-width="0.6816901408450703" id="e5_path"/><path d="M91.86478873239435,165.65070422535211q-13.63380230111136,-24.540844511649993,-32.72112676056338,-32.72112676056338" style="fill:none;stroke:black;stroke-width:5.2px;stroke-linecap:round;" id="e6_path"/><path d="M70.73239436619716,185.41971830985915q12.27042219135123,4.0901408020878876,19.769014084507063,14.997183098591563" style="fill:none;stroke:black;stroke-width:5.2px;stroke-linecap:round;" id="e7_path"/><path d="M89.81971830985916,182.69295774647884q-8.86197178800343,5.453521169743112,-13.633802816901436,18.405633802816908" style="fill:none;stroke:black;stroke-width:5.34px;stroke-linejoin:round;stroke-linecap:round;" id="e8_path"/><path d="M317.5042253521126,182.01126760563378q2.726760563380367,-34.084507042253534,-10.225352112675978,-57.94366197183095q-17.723943661971816,-17.723943661971873,-36.811267605633816,2.7267605633802674q-3.4084507042254018,19.76901408450702,-4.090140845070437,26.585915492957767q9.543661971830943,-117.25070422535214,-8.861971830985794,-122.02253521126764q-72.25915492957759,-7.105427357601002e-15,-95.43661971831,46.354929534482324q12.952112976933876,115.8873234708544,54.535211267605604,140.42816905706695q70.21408450704226,10.907042253521183,98.8450704225352,-29.312676056338034Z" style="fill:white;stroke:black;stroke-width:5.27px;stroke-linecap:round;stroke-linejoin:round;" id="e9_path"/><path d="M361.81408519476236,35.44788650727606q56.580281088385846,-29.31267523967044,107.70704165176608,27.26760627854042q32.03943670568333,49.76338019572512,1.2894747669633944e-7,122.02253538319758q-43.62816978776959,70.21408519476233,-121.3408452423526,12.270422578193802q-38.174647930306435,-44.99154933875718,-32.03943687761341,-95.43661976129239q5.453520653953035,-29.312675024757937,29.994366154200748,-53.1718311578455Z" style="fill:white;stroke:black;stroke-width:6.09px;" id="e10_path"/><path d="M420.4394312757422,154.06197773033463q-19.087325147172066,15.67887422803426,-23.85915643396521,38.856340478171774" style="fill:none;stroke:black;stroke-width:7.06px;stroke-linecap:round;stroke-linejoin:round;" id="e11_path"/><path d="M384.9915417167083,161.56056975243794" style="fill:none;stroke:black;" stroke-width="0.6816901838275748" id="e13_path"/><path d="M422.4845018272248,186.78310655405826q-10.907042941241343,-19.087325147172123,-40.901411029654355,-24.54084661779271" style="fill:none;stroke:black;stroke-width:5.47px;stroke-linecap:round;stroke-linejoin:round;" id="e14_path"/><path d="M507.6957748056718,64.07887346509477q74.9859202210331,-73.6225398533781,111.79719014772229,-1.363380367655168q16.360564411861674,56.5802852576887,-10.225352757413702,70.89577911806782q-62.71549691213693,19.087325147172066,-53.85352452237839,36.81126992668902q5.453521470620558,17.04225459568943,36.12957974286144,-0.681690183827584q-31.357748456068407,13.633803676551508,-34.766199375206384,5.684341886080802e-14q-4.09014110296539,-9.54366257358609,19.087325147172123,-19.769015330999707q43.628171764964804,-24.540846617792667,54.53521470620592,8.861972389758478q1.363380367655168,20.450705514827234,-14.99718404420662,32.721128823723575q-57.94366562534378,47.71831286793028,-115.88733125068768,4.771831286793031q-39.5380306619993,-65.44225764744715,0,-122.0225429051359Z" style="fill:white;stroke:black;stroke-width:5.13px;stroke-linecap:round;stroke-linejoin:round;" id="e16_path"/></svg>